<?xml version="1.0" encoding="UTF-8"?>
<svg version="1.1" xmlns="http://www.w3.org/2000/svg" width="560" height="600">
<path d="M0 0 C184.8 0 369.6 0 560 0 C560 198 560 396 560 600 C375.2 600 190.4 600 0 600 C0 402 0 204 0 0 Z " fill="#FEFEFE" transform="translate(0,0)"/>
<path d="M0 0 C0.19005381 4.56129151 -0.19531763 8.23389486 -1.42578125 12.67578125 C-2.38504167 16.55850198 -2.93001977 20.51004645 -3.53515625 24.4609375 C-4 27 -4 27 -5 29 C-5.20222356 30.66272703 -5.36411387 32.33054185 -5.5 34 C-5.88888889 38.77777778 -5.88888889 38.77777778 -7 41 C-7.195249 42.37769993 -7.34335833 43.76228435 -7.46484375 45.1484375 C-7.5417041 45.98407227 -7.61856445 46.81970703 -7.69775391 47.68066406 C-7.81642822 49.01436035 -7.81642822 49.01436035 -7.9375 50.375 C-8.65117768 57.99211052 -9.56345653 65.48107036 -11 73 C-11.66 73 -12.32 73 -13 73 C-13.03738281 73.87140625 -13.07476562 74.7428125 -13.11328125 75.640625 C-13.5049708 82.73711801 -14.38451552 89.24020289 -16.2421875 96.09375 C-18.28620766 103.93267266 -19.13696749 111.96337452 -20 120 C-21.00224198 129.27674408 -22.1094729 138.26941686 -24.875 147.21484375 C-27.13585338 155.03409786 -28.50942849 162.8945027 -29.75537109 170.93041992 C-30.12319886 173.30089254 -30.50384458 175.66902526 -30.88671875 178.03710938 C-32.53123677 188.32993743 -33.86159914 198.63956084 -35 209 C-35.66 209 -36.32 209 -37 209 C-37.06058594 209.69867188 -37.12117188 210.39734375 -37.18359375 211.1171875 C-37.26738281 212.02726563 -37.35117187 212.93734375 -37.4375 213.875 C-37.51871094 214.77992188 -37.59992188 215.68484375 -37.68359375 216.6171875 C-38 219 -38 219 -39 221 C-39.23029956 223.37123246 -39.41119942 225.74741943 -39.5625 228.125 C-39.68818359 230.04699219 -39.68818359 230.04699219 -39.81640625 232.0078125 C-39.87699219 232.99523437 -39.93757813 233.98265625 -40 235 C-40.66 235 -41.32 235 -42 235 C-41.97679687 235.6290625 -41.95359375 236.258125 -41.9296875 236.90625 C-41.82640048 241.8050058 -42.10698497 245.90753308 -43.4921875 250.6484375 C-44.4411346 255.04279253 -44.51888592 259.54366218 -44.75390625 264.0234375 C-45 267 -45 267 -46 269 C-46.08090971 270.62418745 -46.13914995 272.24951745 -46.1875 273.875 C-46.81397047 282.49941009 -49.68280911 290.4849485 -52.29467773 298.67041016 C-52.97151378 300.90591363 -53.54974855 303.14301875 -54.09375 305.4140625 C-54.99095078 308.96419319 -56.37048516 311.74097032 -58 315 C-58.70758326 318.2366963 -58.70758326 318.2366963 -59 321 C-59.99 321 -60.98 321 -62 321 C-62.10699219 321.57105469 -62.21398437 322.14210938 -62.32421875 322.73046875 C-63.10083198 325.33863225 -64.2516566 327.08780421 -65.8125 329.3125 C-67.69188574 332.02716829 -69.39149975 334.67795691 -70.875 337.625 C-73.62788362 341.99722693 -77.04087957 344.74837582 -81 348 C-83.11781386 349.89860155 -85.22851072 351.80472585 -87.3359375 353.71484375 C-89 355 -89 355 -91 355 C-91 355.66 -91 356.32 -91 357 C-93.40995294 358.64220655 -95.80314791 360.15026599 -98.3125 361.625 C-99.00279297 362.04523438 -99.69308594 362.46546875 -100.40429688 362.8984375 C-105.61552608 366 -105.61552608 366 -109 366 C-109 366.66 -109 367.32 -109 368 C-124.17713106 375.16909708 -139.980041 376.62008896 -156.5 376.53125 C-158.31445522 376.5339567 -160.12890902 376.53784878 -161.94335938 376.54284668 C-165.71498657 376.54868655 -169.48623049 376.54035962 -173.2578125 376.52148438 C-178.03803034 376.49869818 -182.81734913 376.51185134 -187.59753418 376.53577423 C-191.33502707 376.55038323 -195.07231462 376.54555801 -198.80981445 376.53526306 C-200.57006951 376.53263722 -202.33034461 376.53571532 -204.09057617 376.54518127 C-216.68897734 376.59810102 -231.77780064 376.51183847 -243 370 C-243 369.34 -243 368.68 -243 368 C-244.36125 368.061875 -244.36125 368.061875 -245.75 368.125 C-248.8782046 368.00468444 -250.38614006 367.6085292 -253 366 C-253 365.34 -253 364.68 -253 364 C-253.84498047 363.84144531 -253.84498047 363.84144531 -254.70703125 363.6796875 C-257.40033007 362.88133316 -259.35009402 361.67811934 -261.6875 360.125 C-262.86892578 359.35542969 -262.86892578 359.35542969 -264.07421875 358.5703125 C-266 357 -266 357 -267 354 C-268.33316945 353.66601183 -269.66652286 353.3327576 -271 353 C-272.59765625 351.40625 -272.59765625 351.40625 -274.0625 349.5 C-276.1225019 346.83347234 -276.68900302 346.10366566 -280 345 C-281.02035504 343.01030767 -282.01410895 341.00699249 -283 339 C-284.10515352 337.40275076 -285.23229392 335.82060251 -286.375 334.25 C-291.61275232 326.8594427 -295.49121463 320.15813662 -296 311 C-296.66 311 -297.32 311 -298 311 C-299.35439668 308.29120665 -299.06501451 305.99066732 -299 303 C-299.66 303 -300.32 303 -301 303 C-301.53361883 283.33655656 -301.66929565 264.81179189 -296.62670898 245.63769531 C-295.6988388 241.73247151 -295.10948972 237.78625985 -294.5222168 233.81738281 C-293.78274474 229.82789824 -292.49124121 226.10589531 -291.13671875 222.2890625 C-290.28727274 219.83121528 -289.5050677 217.39016082 -288.76953125 214.8984375 C-288.55852783 214.19041992 -288.34752441 213.48240234 -288.13012695 212.75292969 C-287.72148424 211.3729491 -287.31983886 209.99086959 -286.92651367 208.60644531 C-285.58889184 204.14807944 -283.68939663 200.77570193 -281 197 C-280.18908013 195.55228415 -279.39536245 194.09469858 -278.625 192.625 C-276.49860814 188.72661492 -274.05782104 185.26820321 -271.33203125 181.76953125 C-269.88609574 179.93070742 -269.88609574 179.93070742 -268.5625 177.4375 C-266.60278535 174.38034514 -264.17077533 172.1170521 -261.5234375 169.6484375 C-259.76058705 167.96783731 -259.76058705 167.96783731 -259 165 C-258.34 165 -257.68 165 -257 165 C-257 164.34 -257 163.68 -257 163 C-256.34 163 -255.68 163 -255 163 C-255 162.34 -255 161.68 -255 161 C-254.34 161 -253.68 161 -253 161 C-253 160.34 -253 159.68 -253 159 C-251.33333333 158 -249.66666667 157 -248 156 C-246.6696875 154.6696875 -246.6696875 154.6696875 -245.3125 153.3125 C-244.1678125 152.1678125 -244.1678125 152.1678125 -243 151 C-242.34 151 -241.68 151 -241 151 C-241 150.34 -241 149.68 -241 149 C-239.36816893 147.94410931 -237.69207001 146.9563874 -236 146 C-234.989375 145.319375 -233.97875 144.63875 -232.9375 143.9375 C-226.96774194 140 -226.96774194 140 -223 140 C-223 139.34 -223 138.68 -223 138 C-211.79428969 131.93024025 -201.51800348 127.46641299 -189 125 C-187.99551504 124.8004046 -187.99551504 124.8004046 -186.97073746 124.59677696 C-175.31346805 122.33338056 -164.03718465 121.53304941 -152.1796875 121.48828125 C-150.45662205 121.47137515 -148.73356848 121.45321732 -147.01052856 121.43388367 C-142.5424573 121.38701977 -138.07443413 121.35680381 -133.60620117 121.33044434 C-129.01992274 121.30031191 -124.43380953 121.25389689 -119.84765625 121.20898438 C-110.89852509 121.12367822 -101.9493592 121.05601584 -93 121 C-91.8321322 116.52367073 -90.77617516 112.20945589 -90.2890625 107.6015625 C-90.18062012 106.63557129 -90.07217773 105.66958008 -89.96044922 104.67431641 C-89.84975098 103.66804199 -89.73905273 102.66176758 -89.625 101.625 C-86.66909548 76.33819095 -86.66909548 76.33819095 -83 69 C-82.81757369 67.1699456 -82.67839945 65.33546882 -82.5625 63.5 C-82.04724024 56.82540436 -80.81154361 50.51668896 -79.30859375 44.00390625 C-77.43089782 35.65749869 -76.11430187 27.32546352 -75.00219727 18.84448242 C-74.88545654 17.97154541 -74.76871582 17.0986084 -74.6484375 16.19921875 C-74.49640869 15.02105591 -74.49640869 15.02105591 -74.34130859 13.8190918 C-74 12 -74 12 -73 11 C-70.92752617 10.66469963 -68.84571716 10.38682972 -66.76171875 10.1328125 C-65.46556641 9.96910156 -64.16941406 9.80539063 -62.83398438 9.63671875 C-60.77887784 9.38192339 -58.72354223 9.12936532 -56.66772461 8.88037109 C-48.94907278 7.93900307 -41.50424331 6.70608037 -33.97680664 4.69580078 C-28.51232586 3.41852938 -22.95076079 2.93448341 -17.375 2.375 C-15.06996834 2.13611028 -12.76525832 1.89408931 -10.4609375 1.6484375 C-9.45853027 1.54708496 -8.45612305 1.44573242 -7.42333984 1.34130859 C-4.56004467 0.93803571 -2.96893952 0 0 0 Z " fill="#FE434F" transform="translate(436,112)"/>
<path d="M0 0 C1.46258097 0.00561097 2.92516767 0.00987395 4.38775635 0.01286316 C8.19523307 0.02419407 12.00235404 0.05355627 15.80969238 0.0869751 C19.711621 0.11793305 23.61360838 0.13142286 27.515625 0.14648438 C35.14078534 0.17844034 42.7656549 0.22948971 50.390625 0.29296875 C50.24671849 2.22319358 50.09801341 4.15306108 49.94726562 6.08276367 C49.86496704 7.15749435 49.78266846 8.23222504 49.69787598 9.33952332 C49.3347102 12.8304489 48.40114276 15.93299719 47.390625 19.29296875 C46.46876721 24.00694582 45.68374919 28.74335427 44.890625 33.48046875 C44.67792969 34.73150391 44.46523438 35.98253906 44.24609375 37.27148438 C42.94429502 44.94251307 41.66586497 52.61748459 40.390625 60.29296875 C39.730625 60.29296875 39.070625 60.29296875 38.390625 60.29296875 C38.44283203 61.24429688 38.44283203 61.24429688 38.49609375 62.21484375 C38.69555487 69.09150324 38.07450863 75.69169935 37.078125 82.48046875 C36.90156372 83.72618652 36.90156372 83.72618652 36.72143555 84.99707031 C35.55094103 92.55473551 33.765616 99.91277354 29.390625 106.29296875 C28.875 107.05609375 28.359375 107.81921875 27.828125 108.60546875 C27.35375 109.16234375 26.879375 109.71921875 26.390625 110.29296875 C25.730625 110.29296875 25.070625 110.29296875 24.390625 110.29296875 C24.390625 110.95296875 24.390625 111.61296875 24.390625 112.29296875 C23.730625 112.29296875 23.070625 112.29296875 22.390625 112.29296875 C22.390625 112.95296875 22.390625 113.61296875 22.390625 114.29296875 C12.18764888 121.71599136 1.64081599 121.12159472 -10.47314453 120.91040039 C-13.73411324 120.85547316 -16.99252174 120.84887383 -20.25390625 120.84960938 C-22.35418846 120.83486377 -24.45445361 120.81737876 -26.5546875 120.796875 C-27.5153714 120.79353653 -28.4760553 120.79019806 -29.46585083 120.78675842 C-37.43924526 120.62115253 -44.52456033 119.0124996 -51.609375 115.29296875 C-51.609375 114.63296875 -51.609375 113.97296875 -51.609375 113.29296875 C-52.929375 112.96296875 -54.249375 112.63296875 -55.609375 112.29296875 C-55.609375 111.63296875 -55.609375 110.97296875 -55.609375 110.29296875 C-56.269375 110.29296875 -56.929375 110.29296875 -57.609375 110.29296875 C-57.609375 109.63296875 -57.609375 108.97296875 -57.609375 108.29296875 C-58.24875 108.18984375 -58.888125 108.08671875 -59.546875 107.98046875 C-60.2275 107.75359375 -60.908125 107.52671875 -61.609375 107.29296875 C-61.939375 106.30296875 -62.269375 105.31296875 -62.609375 104.29296875 C-63.269375 104.29296875 -63.929375 104.29296875 -64.609375 104.29296875 C-65.59866961 102.4232927 -66.57537969 100.54695497 -67.546875 98.66796875 C-68.09214844 97.62382812 -68.63742188 96.5796875 -69.19921875 95.50390625 C-73.71791628 85.21479443 -72.22713988 71.95873068 -70.10546875 61.16015625 C-69.58436592 58.14842807 -69.39351507 55.21880043 -69.234375 52.16796875 C-67.95841776 35.83571611 -55.92605276 22.46504602 -44.015625 12.125 C-38.98444537 8.29444279 -33.99964838 5.29296875 -27.609375 5.29296875 C-27.609375 4.63296875 -27.609375 3.97296875 -27.609375 3.29296875 C-18.35088277 0.41249905 -9.60643046 -0.10987544 0 0 Z " fill="#FEFCFC" transform="translate(280.609375,300.70703125)"/>
<path d="M0 0 C0.33 0 0.66 0 1 0 C1 3.96 1 7.92 1 12 C0.34 12 -0.32 12 -1 12 C-0.88067846 16.94397863 -0.75637406 21.88779927 -0.62768555 26.83154297 C-0.58468822 28.50924377 -0.54299277 30.18697851 -0.50268555 31.86474609 C-0.29148858 40.62029447 -0.05471342 49.29639847 1 58 C-1 56 -1 56 -1.125 52.875 C-1.08375 51.92625 -1.0425 50.9775 -1 50 C-1.66 50 -2.32 50 -3 50 C-3.07522269 45.12942731 -3.12909757 40.25920663 -3.16479492 35.38818359 C-3.17970574 33.73773291 -3.20004166 32.08732057 -3.22631836 30.43701172 C-3.39082867 19.82448404 -2.79288608 10.3130021 0 0 Z " fill="#FD4659" transform="translate(138,365)"/>
<path d="M0 0 C0.33 0 0.66 0 1 0 C1 4.62 1 9.24 1 14 C0.34 14 -0.32 14 -1 14 C-1 17.96 -1 21.92 -1 26 C-1.66 26 -2.32 26 -3 26 C-2.97679687 26.56847656 -2.95359375 27.13695312 -2.9296875 27.72265625 C-2.80857105 32.90471009 -3.46367966 37.00695891 -5 42 C-5.16928543 44.79244045 -5.16928543 44.79244045 -5 47 C-5.99 47.495 -5.99 47.495 -7 48 C-7.65772428 51.02934491 -7.65772428 51.02934491 -8 54 C-8.33 54 -8.66 54 -9 54 C-9 51.36 -9 48.72 -9 46 C-8.34 46 -7.68 46 -7 46 C-7.02578125 44.82695312 -7.0515625 43.65390625 -7.078125 42.4453125 C-7.07462858 38.46113721 -6.54447874 34.7882304 -5.75 30.875 C-5.47690926 29.49758489 -5.20483636 28.11996773 -4.93359375 26.7421875 C-4.78519043 25.99678711 -4.63678711 25.25138672 -4.48388672 24.48339844 C-3.54495329 19.66461394 -2.68466448 14.83122955 -1.8125 10 C-1.46492345 8.08331888 -1.11727377 6.16665102 -0.76953125 4.25 C-0.5129574 2.83334482 -0.25642116 1.41668283 0 0 Z " fill="#FD8C94" transform="translate(328,315)"/>
<path d="M0 0 C0.33 0 0.66 0 1 0 C1.09765625 6.15234375 1.09765625 6.15234375 1 8 C0.67 8.33 0.34 8.66 0 9 C-0.22753357 10.7037908 -0.39473238 12.41573499 -0.53515625 14.12890625 C-0.62216797 15.16337891 -0.70917969 16.19785156 -0.79882812 17.26367188 C-0.88583984 18.35228516 -0.97285156 19.44089844 -1.0625 20.5625 C-1.15337891 21.65498047 -1.24425781 22.74746094 -1.33789062 23.87304688 C-1.56262811 26.58172492 -1.78314089 29.29068166 -2 32 C-2.99 32 -3.98 32 -5 32 C-5.02687279 30.18757948 -5.04633715 28.37504767 -5.0625 26.5625 C-5.07410156 25.55316406 -5.08570313 24.54382813 -5.09765625 23.50390625 C-5 21 -5 21 -4 20 C-3.71681717 18.60187743 -3.4865614 17.19291089 -3.28125 15.78125 C-3.15363281 14.93175781 -3.02601563 14.08226562 -2.89453125 13.20703125 C-2.69923828 11.86705078 -2.69923828 11.86705078 -2.5 10.5 C-2.24335071 8.73903015 -1.98312456 6.97857663 -1.71875 5.21875 C-1.60466797 4.43435547 -1.49058594 3.64996094 -1.37304688 2.84179688 C-1 1 -1 1 0 0 Z " fill="#FC3342" transform="translate(418,199)"/>
<path d="M0 0 C0.99 0.33 1.98 0.66 3 1 C2.67 1.33 2.34 1.66 2 2 C1.78489012 3.61929939 1.62916566 5.24659004 1.5 6.875 C1.4175 7.85984375 1.335 8.8446875 1.25 9.859375 C1.1675 10.89578125 1.085 11.9321875 1 13 C0.83745283 15.04199877 0.67099965 17.08369168 0.5 19.125 C0.4278125 20.03507812 0.355625 20.94515625 0.28125 21.8828125 C0 24 0 24 -1 25 C-1.27953219 27.0587768 -1.44734351 29.11728432 -1.62109375 31.1875 C-1.74613281 31.785625 -1.87117188 32.38375 -2 33 C-2.99 33.495 -2.99 33.495 -4 34 C-4.37597911 19.12793734 -4.37597911 19.12793734 -2 12 C-1.67 11.67 -1.34 11.34 -1 11 C-0.76636119 9.15108054 -0.58696365 7.29511969 -0.4375 5.4375 C-0.35371094 4.42558594 -0.26992188 3.41367188 -0.18359375 2.37109375 C-0.12300781 1.58863281 -0.06242187 0.80617188 0 0 Z " fill="#FE3040" transform="translate(363,125)"/>
<path d="M0 0 C0.66 0 1.32 0 2 0 C2.21133202 7.04440079 2.07965362 13.24112575 0 20 C-0.66 20 -1.32 20 -2 20 C-2 23.63 -2 27.26 -2 31 C-2.66 31 -3.32 31 -4 31 C-3.46225282 20.50465856 -1.84374439 10.3319261 0 0 Z " fill="#FD3B4A" transform="translate(411,233)"/>
<path d="M0 0 C-2.49399165 2.49399165 -3.61442573 2.32932088 -7.0625 2.5625 C-10.33839564 2.53981953 -10.33839564 2.53981953 -13 4 C-15.18639453 4.07258946 -17.37500389 4.08373783 -19.5625 4.0625 C-21.35880859 4.04896484 -21.35880859 4.04896484 -23.19140625 4.03515625 C-24.11824219 4.02355469 -25.04507812 4.01195313 -26 4 C-26 3.34 -26 2.68 -26 2 C-17.32910197 -0.33447255 -8.89543642 -0.19865739 0 0 Z " fill="#FD3342" transform="translate(395,121)"/>
<path d="M0 0 C3.3 0 6.6 0 10 0 C6.01507981 1.99246009 3.47679186 3.16319776 -0.8671875 3.75390625 C-1.83527344 3.88603516 -2.80335938 4.01816406 -3.80078125 4.15429688 C-4.81527344 4.28900391 -5.82976562 4.42371094 -6.875 4.5625 C-7.88175781 4.70107422 -8.88851563 4.83964844 -9.92578125 4.98242188 C-14.00857311 5.53275836 -17.87145014 6 -22 6 C-22 5.34 -22 4.68 -22 4 C-19.36 4 -16.72 4 -14 4 C-14 3.34 -14 2.68 -14 2 C-9.38 2 -4.76 2 0 2 C0 1.34 0 0.68 0 0 Z " fill="#FBC2C4" transform="translate(389,117)"/>
<path d="M0 0 C0.33 0 0.66 0 1 0 C1.125 7.75 1.125 7.75 0 10 C-0.15643925 11.83091859 -0.27568818 13.66509584 -0.375 15.5 C-0.80443803 21.32909326 -2.06568482 26.50119208 -4 32 C-5.39273174 27.35865734 -4.71129044 23.18724594 -4.1875 18.4375 C-4.10435547 17.57447266 -4.02121094 16.71144531 -3.93554688 15.82226562 C-3.8030957 14.57799805 -3.8030957 14.57799805 -3.66796875 13.30859375 C-3.58828857 12.55376709 -3.5086084 11.79894043 -3.42651367 11.02124023 C-3 9 -3 9 -1 6 C-0.60986284 4.0103005 -0.26797351 2.00980131 0 0 Z " fill="#FD979D" transform="translate(390,371)"/>
<path d="M0 0 C0.33 0 0.66 0 1 0 C1.01981934 0.92748047 1.03963867 1.85496094 1.06005859 2.81054688 C1.13862316 6.28475027 1.22532999 9.75855956 1.31738281 13.23242188 C1.35542835 14.72973948 1.39032167 16.22714089 1.421875 17.72460938 C1.46806201 19.88962567 1.52596017 22.05407686 1.5859375 24.21875 C1.6173584 25.51748047 1.6487793 26.81621094 1.68115234 28.15429688 C1.9264997 31.11349408 2.3144244 33.42268694 3.08837891 36.23632812 C3.94411587 39.76927964 4.02396535 40.75558226 3 44 C1.64560332 41.29120665 1.93498549 38.99066732 2 36 C1.34 36 0.68 36 0 36 C0 24.12 0 12.24 0 0 Z " fill="#FC9FA6" transform="translate(135,379)"/>
<path d="M0 0 C0.66 0 1.32 0 2 0 C2.11269443 6.1105424 1.89604368 11.95170514 1 18 C0.01 18 -0.98 18 -2 18 C-2.02688151 16.35425434 -2.04634123 14.70838587 -2.0625 13.0625 C-2.07410156 12.14597656 -2.08570313 11.22945313 -2.09765625 10.28515625 C-2 8 -2 8 -1 7 C-0.63239269 4.67182036 -0.29758419 2.3381615 0 0 Z " fill="#FD3546" transform="translate(397,313)"/>
<path d="M0 0 C-2.61322515 2.61322515 -4.16778904 2.4576737 -7.8125 2.8515625 C-9.54886719 3.04492188 -9.54886719 3.04492188 -11.3203125 3.2421875 C-12.53460938 3.36851563 -13.74890625 3.49484375 -15 3.625 C-16.21429688 3.7590625 -17.42859375 3.893125 -18.6796875 4.03125 C-27.55660077 5 -27.55660077 5 -30 5 C-30 4.34 -30 3.68 -30 3 C-29.04287109 2.90912109 -29.04287109 2.90912109 -28.06640625 2.81640625 C-26.82697266 2.69072266 -26.82697266 2.69072266 -25.5625 2.5625 C-24.32693359 2.44068359 -24.32693359 2.44068359 -23.06640625 2.31640625 C-21.01337975 2.21069185 -21.01337975 2.21069185 -20 1 C-17.77572582 0.76136926 -15.54470667 0.58444777 -13.3125 0.4375 C-12.09175781 0.35371094 -10.87101562 0.26992187 -9.61328125 0.18359375 C-6.3998839 0.02031843 -3.21657892 -0.03458687 0 0 Z " fill="#FCB8BB" transform="translate(433,112)"/>
<path d="M0 0 C0.33 0 0.66 0 1 0 C1.78392276 19.59806905 1.78392276 19.59806905 -4 26 C-4.125 18.25 -4.125 18.25 -3 16 C-2.8209797 14.42007483 -2.68022407 12.8356711 -2.5625 11.25 C-2.20226804 7.24096695 -1.48760226 3.76859238 0 0 Z " fill="#FCBDBF" transform="translate(432,135)"/>
<path d="M0 0 C0.99 0 1.98 0 3 0 C2.86722656 0.99257813 2.73445312 1.98515625 2.59765625 3.0078125 C1.42033943 11.99904114 0.53767594 20.94440528 0 30 C-0.33 30 -0.66 30 -1 30 C-1.1176305 19.93605753 -0.87801178 10.03442033 0 0 Z " fill="#FE8D96" transform="translate(209,355)"/>
<path d="M0 0 C0 1.32 0 2.64 0 4 C-4.62 4 -9.24 4 -14 4 C-14 3.01 -14 2.02 -14 1 C-12.41693353 0.83081732 -10.83353281 0.66476064 -9.25 0.5 C-8.36828125 0.4071875 -7.4865625 0.314375 -6.578125 0.21875 C-4 0 -4 0 0 0 Z " fill="#FC3040" transform="translate(435,113)"/>
<path d="M0 0 C0.66 0 1.32 0 2 0 C1.76729906 2.41612896 1.52855769 4.83140891 1.28125 7.24609375 C1.10554396 8.96654873 0.93757119 10.68783176 0.78125 12.41015625 C0.59101776 14.28190558 0.30382321 16.14330258 0 18 C-0.66 18.33 -1.32 18.66 -2 19 C-2.22262303 12.2718373 -1.95021536 6.46008837 0 0 Z " fill="#FD3341" transform="translate(351,195)"/>
<path d="M0 0 C0.66 0 1.32 0 2 0 C2.02722517 2.20826378 2.04649729 4.41662638 2.0625 6.625 C2.07410156 7.85476563 2.08570313 9.08453125 2.09765625 10.3515625 C2.00863924 13.67723791 1.63686087 16.74047588 1 20 C0.34 20 -0.32 20 -1 20 C-0.67 13.4 -0.34 6.8 0 0 Z " fill="#FC3442" transform="translate(385,379)"/>
<path d="M0 0 C0.33 0 0.66 0 1 0 C1.10152799 6.7685324 1.03026944 13.30324864 0 20 C-0.66 20 -1.32 20 -2 20 C-2.21133202 12.95559921 -2.07965362 6.75887425 0 0 Z " fill="#FC3644" transform="translate(424,165)"/>
<path d="M0 0 C0.66 0 1.32 0 2 0 C1.67 4.62 1.34 9.24 1 14 C0.01 14 -0.98 14 -2 14 C-2.3690205 4.58997722 -2.3690205 4.58997722 0 0 Z " fill="#FC3141" transform="translate(211,341)"/>
<path d="M0 0 C0.33 0 0.66 0 1 0 C1 4.62 1 9.24 1 14 C0.34 14 -0.32 14 -1 14 C-1 17.96 -1 21.92 -1 26 C-1.66 26 -2.32 26 -3 26 C-2.69182184 22.60376001 -2.37769353 19.20809553 -2.0625 15.8125 C-1.97548828 14.85279297 -1.88847656 13.89308594 -1.79882812 12.90429688 C-1.71181641 11.97294922 -1.62480469 11.04160156 -1.53515625 10.08203125 C-1.456604 9.22843018 -1.37805176 8.3748291 -1.29711914 7.49536133 C-0.99518456 4.9595574 -0.53368625 2.49640053 0 0 Z " fill="#FC6B76" transform="translate(328,315)"/>
<path d="M0 0 C0.33 0 0.66 0 1 0 C0.22095672 16.8929385 0.22095672 16.8929385 -2 24 C-2.33 24 -2.66 24 -3 24 C-3.02688151 22.35425434 -3.04634123 20.70838587 -3.0625 19.0625 C-3.07410156 18.14597656 -3.08570313 17.22945312 -3.09765625 16.28515625 C-3 14 -3 14 -2 13 C-1.79111292 11.00396794 -1.63224523 9.00257059 -1.5 7 C-1.11111111 1.11111111 -1.11111111 1.11111111 0 0 Z " fill="#FDC9CA" transform="translate(360,129)"/>
<path d="M0 0 C0.66 0 1.32 0 2 0 C1.97679687 1.18335938 1.95359375 2.36671875 1.9296875 3.5859375 C1.81671953 11.93321112 1.71712444 19.88763864 4 28 C3.34 28 2.68 28 2 28 C-0.13540594 21.9384737 -0.23853866 16.45123306 -0.125 10.0625 C-0.11597656 9.09248047 -0.10695312 8.12246094 -0.09765625 7.12304688 C-0.07426107 4.74843593 -0.04148176 2.37435224 0 0 Z " fill="#FD5967" transform="translate(207,367)"/>
<path d="M0 0 C0 0.66 0 1.32 0 2 C-1.828125 3.47265625 -1.828125 3.47265625 -4.25 5.0625 C-5.03890625 5.58972656 -5.8278125 6.11695313 -6.640625 6.66015625 C-8.81388284 7.89430764 -10.56017928 8.54673055 -13 9 C-11.0649353 3.1948059 -5.82945544 0 0 0 Z " fill="#FD3948" transform="translate(243,308)"/>
<path d="M0 0 C1.98 0 3.96 0 6 0 C6 0.66 6 1.32 6 2 C4.02 2 2.04 2 0 2 C0.05220703 3.13888672 0.05220703 3.13888672 0.10546875 4.30078125 C0.13253906 5.29464844 0.15960938 6.28851563 0.1875 7.3125 C0.23970703 8.79169922 0.23970703 8.79169922 0.29296875 10.30078125 C0 13 0 13 -1.51171875 14.85546875 C-2.00285156 15.23316406 -2.49398438 15.61085937 -3 16 C-2.88487847 14.27014758 -2.75744323 12.54111249 -2.625 10.8125 C-2.55539062 9.84957031 -2.48578125 8.88664063 -2.4140625 7.89453125 C-1.99784147 4.98491062 -1.20125904 2.67109226 0 0 Z " fill="#FD6873" transform="translate(363,123)"/>
<path d="M0 0 C1.30062431 3.81516464 0.89369853 7.27561763 0.5625 11.25 C0.46066406 12.51328125 0.35882813 13.7765625 0.25390625 15.078125 C0.17011719 16.04234375 0.08632813 17.0065625 0 18 C-0.66 18 -1.32 18 -2 18 C-2.33 18.66 -2.66 19.32 -3 20 C-3.40850553 12.91923749 -1.90420731 6.80074041 0 0 Z " fill="#FBAAAE" transform="translate(399,321)"/>
<path d="M0 0 C1.341794 4.52059818 0.76147579 8.49979751 0.25 13.125 C0.17523438 13.94871094 0.10046875 14.77242187 0.0234375 15.62109375 C-0.06164062 16.40871094 -0.14671875 17.19632813 -0.234375 18.0078125 C-0.34604004 19.08506592 -0.34604004 19.08506592 -0.45996094 20.18408203 C-1 22 -1 22 -4 24 C-3.52662668 20.37421866 -3.04532209 16.74953422 -2.5625 13.125 C-2.42779297 12.09246094 -2.29308594 11.05992187 -2.15429688 9.99609375 C-2.02216797 9.00996094 -1.89003906 8.02382812 -1.75390625 7.0078125 C-1.63345947 6.09660645 -1.5130127 5.18540039 -1.38891602 4.24658203 C-1 2 -1 2 0 0 Z " fill="#FD7C84" transform="translate(350,193)"/>
<path d="M0 0 C0.66 0 1.32 0 2 0 C2 0.66 2 1.32 2 2 C2.66 2 3.32 2 4 2 C5.5078125 3.4609375 5.5078125 3.4609375 7.125 5.375 C7.66382813 6.00148438 8.20265625 6.62796875 8.7578125 7.2734375 C10 9 10 9 10 11 C6.49411644 10.43601004 5.01017608 9.33036227 2.75 6.625 C2.22921875 6.01914062 1.7084375 5.41328125 1.171875 4.7890625 C0 3 0 3 0 0 Z " fill="#FB3745" transform="translate(157,453)"/>
<path d="M0 0 C0.66 0 1.32 0 2 0 C2.38281159 5.23175837 1.21854707 8.37802694 -1 13 C-1.99 13 -2.98 13 -4 13 C-3.29666462 10.02277453 -2.41751463 7.14743457 -1.4375 4.25 C-1.16808594 3.45078125 -0.89867187 2.6515625 -0.62109375 1.828125 C-0.41613281 1.22484375 -0.21117187 0.6215625 0 0 Z " fill="#FE3443" transform="translate(377,419)"/>
<path d="M0 0 C0.33 0 0.66 0 1 0 C1.02685938 2.14576637 1.04633088 4.29162645 1.0625 6.4375 C1.07410156 7.63246094 1.08570313 8.82742188 1.09765625 10.05859375 C1 13 1 13 0 14 C-0.23075082 15.34747084 -0.41153063 16.70377565 -0.5625 18.0625 C-0.706875 19.361875 -0.85125 20.66125 -1 22 C-1.66 22 -2.32 22 -3 22 C-2.68905914 19.45813394 -2.37629464 16.91651402 -2.0625 14.375 C-1.97548828 13.66214844 -1.88847656 12.94929688 -1.79882812 12.21484375 C-1.29217395 8.12408039 -0.7110957 4.06157365 0 0 Z " fill="#FD5E69" transform="translate(142,343)"/>
<path d="M0 0 C0.33 0 0.66 0 1 0 C1 3.96 1 7.92 1 12 C0.34 12 -0.32 12 -1 12 C-1 14.97 -1 17.94 -1 21 C-1.66 21.33 -2.32 21.66 -3 22 C-2.68905914 19.45813394 -2.37629464 16.91651402 -2.0625 14.375 C-1.97548828 13.66214844 -1.88847656 12.94929688 -1.79882812 12.21484375 C-1.29217395 8.12408039 -0.7110957 4.06157365 0 0 Z " fill="#FD5D6A" transform="translate(320,363)"/>
<path d="M0 0 C0.66 0.33 1.32 0.66 2 1 C-0.35876434 6.30721977 -3.91130316 7.83639731 -9 10 C-8.62669176 7.27425729 -8.20805399 6.19177915 -6.15234375 4.296875 C-5.42144531 3.78640625 -4.69054687 3.2759375 -3.9375 2.75 C-3.20402344 2.22921875 -2.47054687 1.7084375 -1.71484375 1.171875 C-1.14894531 0.78515625 -0.58304688 0.3984375 0 0 Z " fill="#FE4E5D" transform="translate(207,253)"/>
<path d="M0 0 C0.33 0 0.66 0 1 0 C1 2.64 1 5.28 1 8 C0.34 8 -0.32 8 -1 8 C-1 11.63 -1 15.26 -1 19 C-1.66 19 -2.32 19 -3 19 C-2.88485851 16.95775363 -2.75742674 14.91619841 -2.625 12.875 C-2.55539062 11.73804688 -2.48578125 10.60109375 -2.4140625 9.4296875 C-2.00556124 6.04606384 -1.19032431 3.18387559 0 0 Z " fill="#FD283A" transform="translate(410,245)"/>
<path d="M0 0 C0.99 0.33 1.98 0.66 3 1 C3 1.99 3 2.98 3 4 C2.34 4 1.68 4 1 4 C1 5.32 1 6.64 1 8 C0.34 8 -0.32 8 -1 8 C-1 9.32 -1 10.64 -1 12 C-1.66 12 -2.32 12 -3 12 C-2.49202991 7.6822542 -1.80317221 3.96697886 0 0 Z " fill="#FC3644" transform="translate(154,311)"/>
<path d="M0 0 C0.33 0 0.66 0 1 0 C1.02687279 1.81242052 1.04633715 3.62495233 1.0625 5.4375 C1.07410156 6.44683594 1.08570313 7.45617187 1.09765625 8.49609375 C1 11 1 11 0 12 C-0.23075082 13.34747084 -0.41153063 14.70377565 -0.5625 16.0625 C-0.706875 17.361875 -0.85125 18.66125 -1 20 C-1.66 20 -2.32 20 -3 20 C-2.69055299 17.41626766 -2.37756043 14.83304867 -2.0625 12.25 C-1.97548828 11.52039063 -1.88847656 10.79078125 -1.79882812 10.0390625 C-1.37972591 6.62415558 -0.882726 3.32396457 0 0 Z " fill="#FD5C67" transform="translate(358,149)"/>
<path d="M0 0 C1.32 0 2.64 0 4 0 C4 3.96 4 7.92 4 12 C3.34 12 2.68 12 2 12 C2.061875 13.423125 2.061875 13.423125 2.125 14.875 C2 18 2 18 0 20 C0.51553879 13.50149789 1.46667709 7.33773468 3 1 C2.01 0.67 1.02 0.34 0 0 Z " fill="#FBBBBC" transform="translate(433,111)"/>
<path d="M0 0 C0.33 0 0.66 0 1 0 C1 3.3 1 6.6 1 10 C0.34 10 -0.32 10 -1 10 C-1 13.3 -1 16.6 -1 20 C-1.66 20 -2.32 20 -3 20 C-2.56367091 13.11059329 -1.91610155 6.64248536 0 0 Z " fill="#FDBEC1" transform="translate(420,203)"/>
<path d="M0 0 C0.99 0 1.98 0 3 0 C3 3.96 3 7.92 3 12 C-0.67952474 7.09396701 -0.29124516 5.82490317 0 0 Z " fill="#FC3545" transform="translate(352,183)"/>
<path d="M0 0 C0.66 0 1.32 0 2 0 C1.45136137 6.7857936 0.45732062 13.35009036 -1 20 C-1.33 20 -1.66 20 -2 20 C-2.02687279 18.18757948 -2.04633715 16.37504767 -2.0625 14.5625 C-2.07410156 13.55316406 -2.08570313 12.54382813 -2.09765625 11.50390625 C-2 9 -2 9 -1 8 C-0.76924918 6.65252916 -0.58846937 5.29622435 -0.4375 3.9375 C-0.293125 2.638125 -0.14875 1.33875 0 0 Z " fill="#FD5E67" transform="translate(419,199)"/>
<path d="M0 0 C0.33 0 0.66 0 1 0 C1.20674944 5.78898419 0.59162079 10.42932723 -1 16 C-1.33 16 -1.66 16 -2 16 C-2 12.04 -2 8.08 -2 4 C-1.34 4 -0.68 4 0 4 C0 2.68 0 1.36 0 0 Z " fill="#FCBCC1" transform="translate(345,217)"/>
<path d="M0 0 C0.33 0 0.66 0 1 0 C1.1799928 5.21979128 0.97094808 9.07262981 -1 14 C-1.33 14 -1.66 14 -2 14 C-2.05410687 12.22950311 -2.09284119 10.45853151 -2.125 8.6875 C-2.14820313 7.70136719 -2.17140625 6.71523437 -2.1953125 5.69921875 C-2 3 -2 3 0 0 Z " fill="#FCBBBF" transform="translate(353,173)"/>
<path d="M0 0 C0.99 0.33 1.98 0.66 3 1 C2.67 1.99 2.34 2.98 2 4 C1.01 4 0.02 4 -1 4 C-1.33 4.99 -1.66 5.98 -2 7 C-3.32 6.67 -4.64 6.34 -6 6 C-4.02 4.02 -2.04 2.04 0 0 Z " fill="#FD3B47" transform="translate(177,279)"/>
<path d="M0 0 C0.33 0 0.66 0 1 0 C1 3.96 1 7.92 1 12 C0.34 12 -0.32 12 -1 12 C-1.33 12.66 -1.66 13.32 -2 14 C-1.85866501 12.22880197 -1.71176792 10.45804713 -1.5625 8.6875 C-1.48128906 7.70136719 -1.40007812 6.71523438 -1.31640625 5.69921875 C-1 3 -1 3 0 0 Z " fill="#FC8087" transform="translate(138,365)"/>
<path d="M0 0 C3.3 0 6.6 0 10 0 C9.67 0.66 9.34 1.32 9 2 C6.05859375 2.4140625 6.05859375 2.4140625 2.4375 2.625 C1.23996094 2.69976562 0.04242188 2.77453125 -1.19140625 2.8515625 C-2.11824219 2.90054688 -3.04507813 2.94953125 -4 3 C-2.68 2.67 -1.36 2.34 0 2 C0 1.34 0 0.68 0 0 Z " fill="#FC2C3A" transform="translate(241,239)"/>
<path d="M0 0 C2.41346327 4.1373656 4.5081809 9.45467653 3.55078125 14.25 C3.36902344 14.8275 3.18726563 15.405 3 16 C1.64560332 13.29120665 1.93498549 10.99066732 2 8 C1.34 8 0.68 8 0 8 C0 5.36 0 2.72 0 0 Z " fill="#FDC1C6" transform="translate(135,407)"/>
<path d="M0 0 C1.3805087 3.76668598 0.59568159 6.44789173 -0.4375 10.25 C-0.72496094 11.32765625 -1.01242187 12.4053125 -1.30859375 13.515625 C-1.53675781 14.33546875 -1.76492188 15.1553125 -2 16 C-2.33 16 -2.66 16 -3 16 C-3 12.7 -3 9.4 -3 6 C-2.34 6 -1.68 6 -1 6 C-0.67 4.02 -0.34 2.04 0 0 Z " fill="#FEC0C3" transform="translate(316,385)"/>
<path d="M0 0 C0.33 0 0.66 0 1 0 C1.1799928 5.21979128 0.97094808 9.07262981 -1 14 C-1.33 14 -1.66 14 -2 14 C-2.1799928 8.78020872 -1.97094808 4.92737019 0 0 Z " fill="#FDB0B3" transform="translate(432,135)"/>
<path d="M0 0 C3.3 0 6.6 0 10 0 C4.47017435 2.76491282 2.11226863 3.09858498 -4 3 C-2.68 2.67 -1.36 2.34 0 2 C0 1.34 0 0.68 0 0 Z " fill="#FEB7BB" transform="translate(389,117)"/>
<path d="M0 0 C0.33 0 0.66 0 1 0 C1 2.64 1 5.28 1 8 C0.34 8 -0.32 8 -1 8 C-1 9.98 -1 11.96 -1 14 C-1.66 14 -2.32 14 -3 14 C-2.68872484 12.41642541 -2.37592711 10.83315007 -2.0625 9.25 C-1.80146484 7.92742187 -1.80146484 7.92742187 -1.53515625 6.578125 C-1.07631512 4.36764947 -0.56663926 2.18487932 0 0 Z " fill="#FEC2C7" transform="translate(384,407)"/>
<path d="M0 0 C1.60031344 3.20062687 0.03173691 5.72271806 -1 9 C-2.33333333 8.33333333 -3.66666667 7.66666667 -5 7 C-5 6.34 -5 5.68 -5 5 C-4.34 5 -3.68 5 -3 5 C-2.5359375 4.0409375 -2.5359375 4.0409375 -2.0625 3.0625 C-1 1 -1 1 0 0 Z " fill="#FE616A" transform="translate(310,406)"/>
<path d="M0 0 C-1.29474635 2.58949269 -2.32663393 2.96035764 -5 4 C-7.75 4.125 -7.75 4.125 -10 4 C-10 3.34 -10 2.68 -10 2 C-6.49223216 0.39644899 -3.85645121 -0.22036864 0 0 Z " fill="#FD2F3B" transform="translate(236,243)"/>
<path d="M0 0 C1.36722938 3.69151932 0.5123038 5.47129113 -1 9 C-1.37593066 10.9924325 -1.71979545 12.9918674 -2 15 C-2.33 15 -2.66 15 -3 15 C-3.35050464 9.158256 -3.16727335 5.1468192 0 0 Z " fill="#FCBBC0" transform="translate(144,334)"/>
<path d="M0 0 C0.66 0.33 1.32 0.66 2 1 C2 2.98 2 4.96 2 7 C0.68 7.33 -0.64 7.66 -2 8 C-1.34 5.36 -0.68 2.72 0 0 Z " fill="#FE3646" transform="translate(323,355)"/>
<path d="M0 0 C0.99 0 1.98 0 3 0 C2.34 1.98 1.68 3.96 1 6 C-0.32 5.67 -1.64 5.34 -3 5 C-1.125 1.125 -1.125 1.125 0 0 Z " fill="#FB4B5A" transform="translate(170,286)"/>
<path d="M0 0 C0.33 0 0.66 0 1 0 C1.19294408 4.82360189 0.75747614 8.49646738 -1 13 C-1.66 12.67 -2.32 12.34 -3 12 C-2.01 8.04 -1.02 4.08 0 0 Z " fill="#FE5D69" transform="translate(316,389)"/>
<path d="M0 0 C-0.25 1.875 -0.25 1.875 -1 4 C-3.0625 5.25 -3.0625 5.25 -5 6 C-5.33 5.01 -5.66 4.02 -6 3 C-2.25 0 -2.25 0 0 0 Z " fill="#FD3847" transform="translate(229,318)"/>
<path d="M0 0 C0.66 0 1.32 0 2 0 C1.49396008 2.16874252 1.00016187 3.99967627 0 6 C-1.32 6 -2.64 6 -4 6 C-4 5.34 -4 4.68 -4 4 C-3.34 4 -2.68 4 -2 4 C-2 3.34 -2 2.68 -2 2 C-1.34 2 -0.68 2 0 2 C0 1.34 0 0.68 0 0 Z " fill="#FB6B73" transform="translate(181,273)"/>
<path d="M0 0 C0 0.99 0 1.98 0 3 C-2.375 4.0625 -2.375 4.0625 -5 5 C-5.66 4.67 -6.32 4.34 -7 4 C-7 3.34 -7 2.68 -7 2 C-4.35261084 0.5393715 -3.10551666 0 0 0 Z " fill="#FC3443" transform="translate(221,249)"/>
<path d="M0 0 C2.97 0.495 2.97 0.495 6 1 C6.33 1.99 6.66 2.98 7 4 C5.68 4 4.36 4 3 4 C3 3.34 3 2.68 3 2 C2.01 2 1.02 2 0 2 C0 1.34 0 0.68 0 0 Z " fill="#FB2F3F" transform="translate(229,417)"/>
<path d="M0 0 C0.33 0 0.66 0 1 0 C1 2.64 1 5.28 1 8 C0.01 8.33 -0.98 8.66 -2 9 C-1.125 1.125 -1.125 1.125 0 0 Z " fill="#FE3142" transform="translate(418,199)"/>
<path d="M0 0 C0.66 0.33 1.32 0.66 2 1 C1.67 5.62 1.34 10.24 1 15 C0.67 15 0.34 15 0 15 C-0.19390729 12.68802845 -0.37996367 10.3753971 -0.5625 8.0625 C-0.71912109 6.13083984 -0.71912109 6.13083984 -0.87890625 4.16015625 C-0.91886719 3.11730469 -0.95882813 2.07445312 -1 1 C-0.67 0.67 -0.34 0.34 0 0 Z " fill="#FC525F" transform="translate(421,184)"/>
<path d="M0 0 C4.875 2.625 4.875 2.625 6 6 C3.5625 5.25 3.5625 5.25 1 4 C0.1875 1.875 0.1875 1.875 0 0 Z " fill="#FE2C3F" transform="translate(216,406)"/>
<path d="M0 0 C1.32 0 2.64 0 4 0 C4 0.66 4 1.32 4 2 C3.01 2 2.02 2 1 2 C1 2.66 1 3.32 1 4 C-0.32 4.33 -1.64 4.66 -3 5 C-1.125 1.125 -1.125 1.125 0 0 Z " fill="#FD2E3E" transform="translate(209,253)"/>
</svg>
