<?xml version="1.0" encoding="UTF-8"?>
<svg xmlns="http://www.w3.org/2000/svg" fill="none" viewBox="0 0 3001 1000" width="2400" height="799.7334221926"><path fill="#FF444F" d="M543.05 254.983 517.5 399.878h-88.69c-82.742 0-161.609 67.037-176.226 149.779l-6.187 35.218c-14.55 82.743 40.657 149.78 123.399 149.78h73.972c60.305 0 117.756-48.818 128.362-109.121l68.124-386.177zm-62.931 356.884c-3.263 18.629-20.034 33.791-38.663 33.791h-44.94c-37.19 0-62.074-30.189-55.547-67.446l3.875-21.96c6.595-37.19 42.085-67.445 79.275-67.445h77.7zm745.971 122.781 58.19-330.154h92.06l-58.2 330.154h-92.13zm9.95-326.347c-4.61 26.187-9.25 52.374-13.86 78.562-43.61-13.553-88.61-9.237-102.43-6.481-14.93 84.776-29.88 169.572-44.83 254.348h-92.118c12.509-70.934 55.248-313.182 55.248-313.182 29.96-12.407 103.53-37.586 197.99-13.247m-373.244-8.479h-71.659c-69.825 0-136.383 56.566-148.69 126.39l-14.481 82.063c-12.307 69.823 34.267 126.392 104.091 126.392h152.43l15.638-88.726H756.87c-23.25 0-38.821-18.833-34.672-42.154l.476-2.787h230.957l13.189-74.788c12.304-69.824-34.266-126.39-104.091-126.39zm11.627 119.32-.543 4.759H736.544l.748-4.215c4.145-23.253 25.36-43.717 48.677-43.717h53.644c23.049 0 38.619 20.125 34.81 43.173m861.097-114.648c-31.38 83.433-103.3 225.359-172.96 330.154h-92.13c-31.97-99.739-52.62-238.709-56.56-330.154h92.12c1.66 29.829 15.02 140.471 30.26 217.765 41.8-75.196 87.88-173.855 107.08-217.765z"/><path fill="#181C25" d="M2117.42 682.67v51.684h-256.58V307.96h59.69v374.71zm91.4 51.684h-57.22V414.405h57.22zm-28.91-377.787q-15.39 0-26.46-9.844c-6.98-6.973-10.46-16.203-10.46-27.688s3.48-20.51 10.46-27.073q11.07-10.46 26.46-10.46c10.25 0 18.86 3.487 25.84 10.46q11.07 9.845 11.07 27.073t-11.07 27.688c-6.98 6.563-15.59 9.844-25.84 9.844m227.61-99.676c16.82 0 31.17 1.23 43.07 3.692 12.3 2.461 20.92 4.717 25.84 6.768l-10.46 49.223c-4.92-2.461-11.89-4.717-20.92-6.768-9.02-2.462-20.1-3.692-33.22-3.692-26.67 0-45.33 7.383-56 22.15q-15.99 21.535-15.99 58.453v27.688h123.05v47.992h-123.05v271.957h-57.23V385.486q0-61.529 30.15-94.754c20.1-22.561 51.69-33.841 94.76-33.841m69.98 318.104c0-28.303 4.1-52.915 12.31-73.835q12.3-31.995 32.61-52.915c13.54-13.946 29.12-24.406 46.76-31.379q26.46-10.46 54.15-10.46 64.605 0 99.06 40.609c22.97 26.662 34.45 67.476 34.45 122.442v9.845c0 3.692-.2 7.178-.61 10.46h-219.04c2.46 33.225 12.1 58.452 28.91 75.68 16.82 17.228 43.07 25.842 78.76 25.842 20.1 0 36.92-1.64 50.45-4.922q20.925-5.538 31.38-10.46l8 47.993c-6.97 3.691-19.28 7.588-36.91 11.69q-25.845 6.153-59.07 6.153c-27.89 0-52.1-4.102-72.61-12.306q-30.15-12.92-49.83-35.071c-13.13-14.767-22.97-32.2-29.54-52.3-6.15-20.509-9.23-42.865-9.23-67.066m219.66-31.38c.41-25.842-6.15-46.967-19.69-63.375-13.12-16.817-31.38-25.226-54.76-25.226q-19.695 0-35.07 7.998c-9.85 4.923-18.25 11.486-25.23 19.69-6.97 8.203-12.51 17.638-16.61 28.303q-5.535 15.997-7.38 32.61z"/></svg>
