<?xml version="1.0" encoding="UTF-8"?>
<svg xmlns="http://www.w3.org/2000/svg" fill="none" viewBox="0 0 3001 1000" width="2400" height="799.7334221926"><path fill="#FF444F" d="m442.882 335.538-17.15 97.257h-59.531c-55.539 0-108.476 44.997-118.287 100.535l-4.153 23.64c-9.766 55.539 27.29 100.536 82.828 100.536h49.652c40.478 0 79.041-32.768 86.16-73.245l45.726-259.211zm-42.241 239.549c-2.19 12.505-13.448 22.682-25.952 22.682h-30.165c-24.963 0-41.665-20.264-37.284-45.272l2.601-14.74c4.427-24.963 28.248-45.27 53.211-45.27h52.154zm500.71 82.414 39.064-221.607h61.785l-39.059 221.607h-61.837zm6.683-219.052c-3.097 17.577-6.208 35.155-9.305 52.733-29.273-9.097-59.476-6.2-68.755-4.35a735815 735815 0 0 1-30.089 170.724h-61.831c8.396-47.613 37.082-210.215 37.082-210.215 20.11-8.328 69.495-25.229 132.898-8.892m-250.531-5.691h-48.1c-46.868 0-91.543 37.968-99.804 84.836l-9.72 55.082c-8.261 46.868 23.001 84.837 69.869 84.837h102.314l10.497-59.554h-96.156c-15.606 0-26.058-12.642-23.273-28.295l.319-1.871h155.024l8.853-50.199c8.259-46.868-23-84.836-69.868-84.836zm7.804 80.09-.365 3.194H572.76l.502-2.829c2.782-15.607 17.022-29.343 32.673-29.343h36.007c15.471 0 25.922 13.508 23.365 28.978m577.993-76.954c-21.07 56.002-69.34 151.266-116.1 221.607h-61.84c-21.46-66.947-35.32-160.227-37.97-221.607h61.84c1.12 20.022 10.08 94.287 20.31 146.169 28.06-50.474 58.99-116.696 71.87-146.169z"/><path fill="#181C25" d="M1403.41 369.592c40.2 0 71.03 7.709 92.51 23.128 21.75 15.143 32.63 37.858 32.63 68.144q0 24.78-9.09 42.539c-5.78 11.564-14.32 21.063-25.61 28.497q-16.515 10.737-40.47 15.693c-15.97 3.304-34 4.956-54.1 4.956h-31.8v106.14h-40.06V376.613c11.28-2.753 23.81-4.543 37.58-5.369 14.04-1.101 26.84-1.652 38.41-1.652m3.3 35.105c-17.07 0-30.15.413-39.23 1.239v112.335h30.15q20.64 0 37.17-2.478c11.01-1.928 20.23-4.956 27.67-9.086 7.71-4.405 13.62-10.325 17.75-17.759s6.2-16.933 6.2-28.497c0-11.013-2.2-20.099-6.61-27.258q-6.195-10.737-17.34-16.932-10.74-6.608-25.2-9.086c-9.63-1.652-19.82-2.478-30.56-2.478m218 226.322c9.08 0 17.07-.138 23.95-.413q10.74-.826 17.76-2.478v-64.015c-2.75-1.376-7.29-2.478-13.63-3.304-6.05-1.101-13.49-1.652-22.3-1.652-5.78 0-11.98.413-18.58 1.239q-9.51 1.24-17.76 5.369c-5.23 2.478-9.64 6.058-13.22 10.738q-5.37 6.608-5.37 17.759c0 13.767 4.41 23.403 13.22 28.91 8.81 5.231 20.79 7.847 35.93 7.847m-3.31-192.457c15.42 0 28.36 2.065 38.83 6.195 10.73 3.855 19.27 9.499 25.6 16.933q9.915 10.738 14.04 26.019c2.76 9.912 4.13 20.925 4.13 33.04v134.223q-4.95.826-14.04 2.478c-5.78.826-12.39 1.652-19.82 2.478-7.44.826-15.56 1.515-24.37 2.065-8.53.826-17.07 1.239-25.6 1.239-12.12 0-23.27-1.239-33.46-3.717q-15.27-3.717-26.43-11.563-11.145-8.26-17.34-21.476c-4.13-8.811-6.2-19.411-6.2-31.801q0-17.758 7.02-30.562 7.44-12.802 19.83-20.65c8.26-5.231 17.89-9.085 28.91-11.563 11.01-2.478 22.57-3.717 34.69-3.717q5.775 0 11.97.826c4.13.275 7.99.826 11.57 1.652 3.85.55 7.16 1.101 9.91 1.652s4.68.963 5.78 1.239v-10.738c0-6.333-.69-12.528-2.06-18.585q-2.07-9.499-7.44-16.52c-3.58-4.956-8.53-8.811-14.87-11.564-6.05-3.029-14.04-4.543-23.95-4.543-12.66 0-23.82.964-33.45 2.891q-14.04 2.478-21.06 5.369l-4.55-31.801q7.44-3.303 24.78-6.195c11.57-2.202 24.09-3.304 37.58-3.304m209.17.826c3.31 0 7.02.276 11.15.826q6.615.414 12.81 1.652c4.13.551 7.84 1.239 11.15 2.065 3.58.551 6.19 1.102 7.84 1.652l-6.6 33.453c-3.03-1.101-8.13-2.34-15.29-3.717-6.88-1.652-15.83-2.478-26.84-2.478q-10.74 0-21.48 2.478c-6.88 1.377-11.42 2.34-13.63 2.891v180.479h-38.4V453.017c9.08-3.304 20.37-6.332 33.86-9.086 13.49-3.028 28.64-4.543 45.43-4.543m99.43 4.543h81.36v32.214H1930v99.119c0 10.738.82 19.686 2.48 26.845 1.65 6.883 4.12 12.39 7.43 16.52q4.95 5.781 12.39 8.26c4.95 1.652 10.74 2.478 17.34 2.478 11.57 0 20.79-1.239 27.68-3.717 7.15-2.754 12.11-4.681 14.86-5.782l7.44 31.801c-3.86 1.927-10.6 4.267-20.24 7.02-9.64 3.029-20.65 4.543-33.04 4.543-14.59 0-26.71-1.789-36.34-5.369-9.36-3.854-16.94-9.498-22.72-16.932q-8.67-11.151-12.39-27.258-3.3-16.52-3.3-37.996v-191.63l38.41-6.608zm113.71 6.195c8.81-2.202 20.52-4.543 35.11-7.021s31.39-3.717 50.38-3.717q25.605 0 42.54 7.434 16.935 7.022 26.85 20.237c6.88 8.535 11.7 18.86 14.45 30.975 2.75 12.114 4.13 25.468 4.13 40.061v120.594h-38.41V546.354c0-13.215-.96-24.504-2.89-33.865q-2.475-14.042-8.67-22.715c-4.13-5.782-9.64-9.912-16.52-12.39-6.88-2.753-15.42-4.13-25.61-4.13-4.13 0-8.39.138-12.8.413-4.4.275-8.67.688-12.8 1.239q-5.79.412-10.74 1.239c-3.03.551-5.23.964-6.61 1.239v181.305h-38.41zm208.66 101.597c0-18.997 2.75-35.517 8.26-49.559 5.5-14.317 12.8-26.157 21.89-35.518q13.62-14.042 31.38-21.063c11.84-4.68 23.96-7.021 36.35-7.021 28.91 0 51.07 9.086 66.49 27.258q23.13 26.845 23.13 82.186v6.608q0 3.717-.42 7.021h-147.02q2.475 33.453 19.41 50.799t52.86 17.346q20.235 0 33.87-3.304 14.04-3.717 21.06-7.021l5.37 32.214q-7.02 3.716-24.78 7.846c-11.56 2.754-24.78 4.13-39.65 4.13-18.72 0-34.97-2.753-48.73-8.26q-20.235-8.672-33.45-23.54c-8.82-9.912-15.42-21.614-19.83-35.105-4.13-13.767-6.19-28.772-6.19-45.017m147.44-21.062c.27-17.346-4.13-31.526-13.22-42.539-8.81-11.289-21.06-16.933-36.76-16.933-8.81 0-16.65 1.79-23.54 5.369-6.61 3.304-12.25 7.709-16.93 13.216s-8.4 11.839-11.15 18.998a101 101 0 0 0-4.96 21.889zm158.01-91.273c3.3 0 7.02.276 11.15.826 4.4.276 8.67.826 12.8 1.652 4.13.551 7.85 1.239 11.15 2.065 3.58.551 6.2 1.102 7.85 1.652l-6.61 33.453c-3.03-1.101-8.12-2.34-15.28-3.717q-10.32-2.478-26.85-2.478c-7.15 0-14.31.826-21.47 2.478-6.89 1.377-11.43 2.34-13.63 2.891v180.479h-38.41V453.017q13.635-4.955 33.87-9.086c13.49-3.028 28.63-4.543 45.43-4.543m113.46 191.631c15.7 0 27.26-2.065 34.7-6.195 7.7-4.13 11.56-10.738 11.56-19.824 0-9.361-3.72-16.795-11.15-22.302-7.44-5.506-19.69-11.701-36.76-18.585-8.26-3.304-16.24-6.608-23.95-9.912q-11.16-5.369-19.41-12.39c-5.51-4.68-9.92-10.324-13.22-16.932q-4.95-9.913-4.95-24.367 0-28.497 21.06-45.017c14.04-11.288 33.18-16.933 57.4-16.933q9.09 0 18.18 1.239c6.05.551 11.7 1.377 16.93 2.478 5.23.826 9.77 1.79 13.63 2.891 4.13 1.102 7.29 2.065 9.5 2.891l-7.02 33.04q-6.195-3.304-19.41-6.608c-8.82-2.478-19.42-3.717-31.81-3.717q-16.095 0-28.08 6.608c-7.98 4.13-11.98 10.738-11.98 19.824 0 4.681.83 8.81 2.48 12.39 1.93 3.579 4.68 6.883 8.26 9.912q5.79 4.13 14.04 7.847 8.265 3.716 19.83 7.847c10.18 3.854 19.27 7.709 27.26 11.563 7.98 3.58 14.73 7.847 20.23 12.803 5.78 4.956 10.19 11.014 13.22 18.172 3.03 6.883 4.54 15.419 4.54 25.606 0 19.824-7.43 34.829-22.3 45.017-14.59 10.187-35.52 15.28-62.78 15.28-18.99 0-33.86-1.652-44.6-4.956-10.74-3.028-18.03-5.368-21.89-7.02l7.02-33.04q6.615 2.478 21.06 7.434c9.64 3.304 22.44 4.956 38.41 4.956"/></svg>
